<?xml version="1.0" encoding="iso-8859-1"?>
<!-- Uploaded to: SVG Repo, www.svgrepo.com, Generator: SVG Repo Mixer Tools -->
<!DOCTYPE svg PUBLIC "-//W3C//DTD SVG 1.1//EN" "http://www.w3.org/Graphics/SVG/1.1/DTD/svg11.dtd">
<svg fill="#000000" height="800px" width="800px" version="1.1" id="Capa_1" xmlns="http://www.w3.org/2000/svg" xmlns:xlink="http://www.w3.org/1999/xlink" 
	 viewBox="0 0 217.583 217.583" xml:space="preserve">
<path d="M108.792,0C48.804,0,0,48.804,0,108.791c0,59.988,48.804,108.792,108.792,108.792s108.792-48.804,108.792-108.792
	C217.583,48.804,168.779,0,108.792,0z M116.613,51.553l10.383-0.668c2.747-0.209,5.133,1.912,5.311,4.668
	c0.177,2.756-1.913,5.134-4.669,5.311l-10.383,0.668c-0.109,0.008-0.218,0.011-0.326,0.011c-2.615,0-4.814-2.032-4.985-4.679
	C111.767,54.107,113.857,51.729,116.613,51.553z M59.975,73.423c1.791-2.103,4.948-2.353,7.049-0.561l11.679,9.958
	c2.101,1.792,2.352,4.947,0.561,7.049c-0.989,1.16-2.394,1.756-3.807,1.756c-1.147,0-2.3-0.393-3.242-1.195l-11.679-9.958
	C58.434,78.68,58.183,75.524,59.975,73.423z M57.457,131.626c-0.603,0-1.216-0.109-1.812-0.341l-6-2.334
	c-2.574-1.001-3.849-3.899-2.847-6.473c1-2.574,3.9-3.847,6.472-2.848l6,2.334c2.574,1.001,3.849,3.899,2.847,6.473
	C61.349,130.416,59.458,131.626,57.457,131.626z M79.93,165.527c-0.876,1.752-2.642,2.765-4.476,2.765
	c-0.751,0-1.514-0.17-2.232-0.528l-8.667-4.333c-2.47-1.235-3.471-4.238-2.236-6.709c1.234-2.47,4.238-3.471,6.708-2.236
	l8.667,4.333C80.164,160.054,81.165,163.057,79.93,165.527z M85.294,135.275c-0.603,0.238-1.224,0.351-1.834,0.351
	c-1.993,0-3.876-1.199-4.652-3.165l-5-12.667c-1.014-2.568,0.247-5.473,2.815-6.486c2.569-1.017,5.473,0.246,6.487,2.814l5,12.667
	C89.123,131.357,87.862,134.262,85.294,135.275z M94.792,71.508c0-2.762,2.239-5,5-5s5,2.238,5,5v25.166c0,2.762-2.239,5-5,5
	s-5-2.238-5-5V71.508z M103.334,165.881c-0.512,0.166-1.032,0.245-1.543,0.245c-2.109,0-4.069-1.344-4.755-3.459l-2-6.167
	c-0.852-2.626,0.587-5.446,3.214-6.298c2.626-0.851,5.447,0.586,6.299,3.214l2,6.167
	C107.399,162.209,105.96,165.029,103.334,165.881z M121.829,180.164l-7,4.5c-0.836,0.538-1.773,0.795-2.699,0.795
	c-1.645,0-3.255-0.811-4.211-2.297c-1.493-2.323-0.821-5.417,1.502-6.91l7-4.5c2.324-1.493,5.417-0.82,6.91,1.502
	C124.824,175.577,124.152,178.671,121.829,180.164z M144.474,120.938l-15.333,20.667c-0.981,1.322-2.491,2.021-4.02,2.021
	c-1.036,0-2.08-0.32-2.975-0.984c-2.218-1.646-2.682-4.777-1.037-6.995l15.333-20.667c1.645-2.218,4.777-2.681,6.995-1.036
	C145.655,115.588,146.119,118.72,144.474,120.938z M148.033,73.057c1.602-2.249,4.725-2.773,6.974-1.171l11.415,8.133
	c2.249,1.603,2.773,4.725,1.171,6.974c-0.976,1.369-2.515,2.099-4.077,2.099c-1.004,0-2.017-0.301-2.897-0.928l-11.415-8.133
	C146.955,78.428,146.431,75.306,148.033,73.057z M178.733,136.743l-15,7.667c-0.729,0.372-1.506,0.549-2.271,0.549
	c-1.818,0-3.572-0.995-4.456-2.726c-1.257-2.459-0.282-5.471,2.177-6.728l15-7.667c2.458-1.255,5.471-0.282,6.728,2.177
	C182.167,132.475,181.192,135.486,178.733,136.743z"/>
</svg>