<svg width="201" height="218" viewBox="0 0 201 218" fill="none" xmlns="http://www.w3.org/2000/svg">
<path d="M119.486 6.38104C63.2754 -10.3192 22.9611 10.4481 0.0531522 66.0105L55.5302 86.2025C63.0802 66.9344 79.8101 56.3773 100.588 61.2549C121.193 66.6067 138.434 78.2515 139.291 93.5991C140.105 110.542 120.142 122.607 110.915 127.303C93.7543 136.092 70.2153 138.801 55.0804 149.402C39.9456 160.003 31.3183 177.805 22.0861 200.219L70.9248 217.995C76.749 203.469 82.7022 190.063 92.6195 183.47C108.875 172.741 127.413 171.97 145.004 164.948C161.776 158.702 180.359 150.431 189.849 130.258C219.699 71.8521 180.137 24.1604 119.486 6.38104Z" fill="#FF5A79"/>
</svg>
